<svg width="17" height="17" viewBox="0 0 17 17" fill="none" xmlns="http://www.w3.org/2000/svg">
<g clip-path="url(#clip0_3_28948)">
<path fill-rule="evenodd" clip-rule="evenodd" d="M9.32812 2.0625C9.32812 2.43264 9.12703 2.75581 8.82812 2.92872V3.5625C8.82812 3.83864 9.05198 4.0625 9.32812 4.0625H9.82812C11.2259 4.0625 11.9248 4.0625 12.4762 4.29086C13.2112 4.59534 13.7953 5.17937 14.0997 5.91445C14.3281 6.46576 14.3281 7.16468 14.3281 8.5625C14.3281 9.96032 14.3281 10.6592 14.0997 11.2106C13.7953 11.9456 13.2112 12.5297 12.4762 12.8341C12.0416 13.0141 11.5153 13.0523 10.6273 13.0603C10.462 13.0618 10.3281 13.1958 10.3281 13.3611V13.7625C10.3281 13.9282 10.4624 14.0625 10.6281 14.0625H10.8281C11.1042 14.0625 11.3281 14.2864 11.3281 14.5625V14.8625C11.3281 14.973 11.2386 15.0625 11.1281 15.0625H5.52812C5.41766 15.0625 5.32812 14.973 5.32812 14.8625V14.5625C5.32812 14.2864 5.55199 14.0625 5.82812 14.0625H6.02812C6.19381 14.0625 6.32812 13.9282 6.32812 13.7625V13.3611C6.32812 13.1958 6.19423 13.0618 6.0289 13.0603C5.14091 13.0523 4.61465 13.0141 4.18007 12.8341C3.44499 12.5297 2.86096 11.9456 2.55648 11.2106C2.32812 10.6592 2.32812 9.96032 2.32812 8.5625C2.32812 7.16468 2.32812 6.46576 2.55648 5.91445C2.86096 5.17937 3.44499 4.59534 4.18007 4.29086C4.73138 4.0625 5.43031 4.0625 6.82812 4.0625H7.32812C7.60427 4.0625 7.82812 3.83864 7.82812 3.5625V2.92872C7.52922 2.75581 7.32812 2.43264 7.32812 2.0625C7.32812 1.51022 7.77585 1.0625 8.32812 1.0625C8.8804 1.0625 9.32812 1.51022 9.32812 2.0625ZM5.32812 8.0625C5.8804 8.0625 6.32812 7.61478 6.32812 7.0625C6.32812 6.51022 5.8804 6.0625 5.32812 6.0625C4.77585 6.0625 4.32812 6.51022 4.32812 7.0625C4.32812 7.61478 4.77585 8.0625 5.32812 8.0625ZM12.3281 7.0625C12.3281 7.61478 11.8804 8.0625 11.3281 8.0625C10.7758 8.0625 10.3281 7.61478 10.3281 7.0625C10.3281 6.51022 10.7758 6.0625 11.3281 6.0625C11.8804 6.0625 12.3281 6.51022 12.3281 7.0625ZM6.72813 9.0625C6.50722 9.0625 6.32812 9.24159 6.32812 9.4625V10.1625C6.32812 10.3834 6.50722 10.5625 6.72813 10.5625H9.92813C10.149 10.5625 10.3281 10.3834 10.3281 10.1625V9.4625C10.3281 9.24159 10.149 9.0625 9.92813 9.0625H6.72813Z" fill="white"/>
</g>
<defs>
<clipPath id="clip0_3_28948">
<rect width="16" height="16" fill="white" transform="translate(0.328125 0.0625)"/>
</clipPath>
</defs>
</svg>
