<svg width="17" height="17" viewBox="0 0 17 17" fill="none" xmlns="http://www.w3.org/2000/svg">
<g clip-path="url(#clip0_3_29018)">
<path d="M6.65625 1.4375V13.4374L10.6562 15.4374V3.43941L6.65625 1.4375Z" fill="white"/>
<path d="M5.65625 13.4374L5.65623 1.4375L2.05876 3.48307C1.81134 3.61243 1.65625 3.86852 1.65625 4.14772V14.6875C1.65625 14.9577 1.8016 15.207 2.03673 15.3401C2.27187 15.4733 2.56044 15.4696 2.79213 15.3306L5.65625 13.4374Z" fill="white"/>
<path d="M15.3497 12.5424L11.6562 15.4375V3.4395L14.5204 1.54438C14.7521 1.40536 15.0407 1.40172 15.2758 1.53485C15.511 1.66798 15.6562 1.9173 15.6562 2.1875V11.9376C15.6562 12.1765 15.5424 12.4011 15.3497 12.5424Z" fill="white"/>
</g>
<defs>
<clipPath id="clip0_3_29018">
<rect width="16" height="16" fill="white" transform="translate(0.65625 0.4375)"/>
</clipPath>
</defs>
</svg>
