<svg width="149" height="149" viewBox="0 0 149 149" fill="none" xmlns="http://www.w3.org/2000/svg">
<g clip-path="url(#clip0_3_29139)">
<g clip-path="url(#clip1_3_29139)">
<path fill-rule="evenodd" clip-rule="evenodd" d="M74.3092 112.007C94.9652 112.007 111.711 95.2607 111.711 74.6037C111.711 53.9477 94.9652 37.2017 74.3092 37.2017C53.6523 37.2017 36.9062 53.9467 36.9062 74.6037C36.9062 95.2607 53.6512 112.007 74.3092 112.007ZM73.5293 54.3447C72.496 54.3447 71.505 54.7551 70.7744 55.4858C70.0437 56.2164 69.6332 57.2074 69.6332 58.2407V71.4867H57.9452C56.912 71.4867 55.921 71.8971 55.1904 72.6278C54.4597 73.3584 54.0492 74.3494 54.0492 75.3827C54.0492 76.4159 54.4597 77.4069 55.1904 78.1375C55.921 78.8682 56.912 79.2787 57.9452 79.2787H69.6332V90.9677C69.6332 92.0009 70.0437 92.9919 70.7744 93.7225C71.505 94.4532 72.496 94.8637 73.5293 94.8637C74.5625 94.8637 75.5535 94.4532 76.2841 93.7225C77.0148 92.9919 77.4252 92.0009 77.4252 90.9677V79.2787H90.6722C91.7055 79.2787 92.6965 78.8682 93.4271 78.1375C94.1578 77.4069 94.5683 76.4159 94.5683 75.3827C94.5683 74.3494 94.1578 73.3584 93.4271 72.6278C92.6965 71.8971 91.7055 71.4867 90.6722 71.4867H77.4252V58.2407C77.4252 57.729 77.3245 57.2224 77.1287 56.7497C76.9329 56.277 76.6459 55.8475 76.2841 55.4858C75.9224 55.124 75.4929 54.837 75.0202 54.6412C74.5475 54.4454 74.0409 54.3447 73.5293 54.3447Z" fill="url(#paint0_linear_3_29139)" fill-opacity="0.8"/>
<path d="M110.933 74.604C110.933 94.831 94.5355 111.227 74.3095 111.227C54.0825 111.227 37.6855 94.831 37.6855 74.604C37.6855 54.378 54.0825 37.981 74.3105 37.981C94.5365 37.981 110.933 54.378 110.933 74.604ZM73.5295 53.565C72.9155 53.565 72.3075 53.6859 71.7403 53.9209C71.173 54.1559 70.6576 54.5004 70.2235 54.9346C69.7893 55.3688 69.445 55.8843 69.2101 56.4516C68.9752 57.0189 68.8544 57.6269 68.8545 58.241V70.708H57.9455C56.7057 70.708 55.5166 71.2005 54.6398 72.0772C53.7631 72.954 53.2705 74.1431 53.2705 75.383C53.2705 76.6228 53.7631 77.8119 54.6398 78.6887C55.5166 79.5654 56.7057 80.058 57.9455 80.058H68.8555V90.968C68.8555 92.2078 69.3481 93.3969 70.2248 94.2737C71.1016 95.1504 72.2907 95.643 73.5305 95.643C74.7704 95.643 75.9595 95.1504 76.8363 94.2737C77.713 93.3969 78.2055 92.2078 78.2055 90.968V80.058H90.6725C91.9124 80.058 93.1015 79.5654 93.9783 78.6887C94.855 77.8119 95.3475 76.6228 95.3475 75.383C95.3475 74.1431 94.855 72.954 93.9783 72.0772C93.1015 71.2005 91.9124 70.708 90.6725 70.708H78.2055V58.241C78.2057 57.6269 78.0848 57.0188 77.8499 56.4514C77.6149 55.884 77.2705 55.3685 76.8363 54.9342C76.402 54.5 75.8865 54.1556 75.3191 53.9206C74.7518 53.6857 74.1436 53.5648 73.5295 53.565Z" stroke="url(#paint1_linear_3_29139)" stroke-opacity="0.2" stroke-width="1.558"/>
</g>
<mask id="mask0_3_29139" style="mask-type:alpha" maskUnits="userSpaceOnUse" x="0" y="0" width="149" height="149">
<rect x="0.5" y="0.800781" width="148" height="148" fill="black"/>
</mask>
<g mask="url(#mask0_3_29139)">
<rect x="0.5" y="0.800781" width="148" height="148" rx="74" fill="url(#paint2_linear_3_29139)"/>
</g>
<rect x="0.5" y="0.800781" width="148" height="148" fill="url(#paint3_linear_3_29139)"/>
</g>
<defs>
<linearGradient id="paint0_linear_3_29139" x1="74.3092" y1="37.2017" x2="74.3092" y2="112.007" gradientUnits="userSpaceOnUse">
<stop stop-color="#6C38FF"/>
<stop offset="1" stop-color="#B59AFF"/>
</linearGradient>
<linearGradient id="paint1_linear_3_29139" x1="74.3095" y1="37.202" x2="74.3095" y2="112.007" gradientUnits="userSpaceOnUse">
<stop stop-color="white"/>
<stop offset="1" stop-color="white" stop-opacity="0"/>
</linearGradient>
<linearGradient id="paint2_linear_3_29139" x1="74.5" y1="0.800781" x2="74.5" y2="148.801" gradientUnits="userSpaceOnUse">
<stop stop-color="white" stop-opacity="0.3"/>
<stop offset="1" stop-color="white" stop-opacity="0"/>
</linearGradient>
<linearGradient id="paint3_linear_3_29139" x1="74.5" y1="0.800781" x2="74.5" y2="148.801" gradientUnits="userSpaceOnUse">
<stop stop-color="#6C38FF" stop-opacity="0.3"/>
<stop offset="1" stop-color="#8B62FF" stop-opacity="0.3"/>
</linearGradient>
<clipPath id="clip0_3_29139">
<rect x="0.5" y="0.800781" width="148" height="148" rx="74" fill="white"/>
</clipPath>
<clipPath id="clip1_3_29139">
<rect width="88" height="88" fill="white" transform="translate(30.5 30.8008)"/>
</clipPath>
</defs>
</svg>
