<svg width="17" height="17" viewBox="0 0 17 17" fill="none" xmlns="http://www.w3.org/2000/svg">
<g clip-path="url(#clip0_3_29001)">
<path d="M10.6144 5.88194C10.6144 7.23197 9.59105 8.32639 8.32868 8.32639C7.06632 8.32639 6.04297 7.23197 6.04297 5.88194C6.04297 4.53191 7.06632 3.4375 8.32868 3.4375C9.59105 3.4375 10.6144 4.53191 10.6144 5.88194Z" fill="white"/>
<path d="M3.75586 12.398C3.75586 11.4125 4.30857 10.5187 5.1856 10.2163C6.12275 9.89317 7.35054 9.54883 8.32729 9.54883C9.30404 9.54883 10.5318 9.89317 11.469 10.2163C12.346 10.5187 12.8987 11.4125 12.8987 12.398V13.2155C12.8987 13.8905 12.3871 14.4377 11.7559 14.4377H4.89872C4.26754 14.4377 3.75586 13.8905 3.75586 13.2155V12.398Z" fill="white"/>
<path fill-rule="evenodd" clip-rule="evenodd" d="M4.9614 5.18811C4.92117 5.41276 4.90011 5.6447 4.90011 5.88189C4.90011 6.43951 5.0165 6.96805 5.22472 7.44126C4.92433 7.97178 4.37951 8.32634 3.75725 8.32634C2.81048 8.32634 2.04297 7.50553 2.04297 6.49301C2.04297 5.48048 2.81048 4.65967 3.75725 4.65967C4.22656 4.65967 4.65183 4.86136 4.9614 5.18811Z" fill="white"/>
<path d="M2.61384 13.2155V12.398C2.61384 11.2899 3.0884 10.2172 3.92481 9.55309C3.86783 9.55029 3.81173 9.54883 3.7567 9.54883C3.02414 9.54883 2.10328 9.80709 1.40042 10.0494C0.742656 10.2762 0.328125 10.9466 0.328125 11.6857V12.2988C0.328125 12.8051 0.711881 13.2155 1.18527 13.2155H2.61384Z" fill="white"/>
<path fill-rule="evenodd" clip-rule="evenodd" d="M11.7005 5.18811C11.7407 5.41276 11.7618 5.6447 11.7618 5.88189C11.7618 6.43951 11.6455 6.96805 11.4375 7.44126C11.7376 7.97178 12.2819 8.32634 12.9036 8.32634C13.8494 8.32634 14.6162 7.50553 14.6162 6.49301C14.6162 5.48048 13.8494 4.65967 12.9036 4.65967C12.4347 4.65967 12.0098 4.86136 11.7005 5.18811Z" fill="white"/>
<path d="M14.0441 13.2155V12.398C14.0441 11.2899 13.57 10.2172 12.7344 9.55309C12.7913 9.55029 12.8474 9.54883 12.9024 9.54883C13.6342 9.54883 14.5542 9.80709 15.2564 10.0494C15.9136 10.2762 16.3277 10.9466 16.3277 11.6857V12.2988C16.3277 12.8051 15.9443 13.2155 15.4714 13.2155H14.0441Z" fill="white"/>
</g>
<defs>
<clipPath id="clip0_3_29001">
<rect width="16" height="16" fill="white" transform="translate(0.328125 0.4375)"/>
</clipPath>
</defs>
</svg>
