<svg width="17" height="17" viewBox="0 0 17 17" fill="none" xmlns="http://www.w3.org/2000/svg">
<g clip-path="url(#clip0_3_29032)">
<path fill-rule="evenodd" clip-rule="evenodd" d="M1.98438 2.07812C1.98438 1.52584 2.43209 1.07812 2.98438 1.07812H14.9844C15.5367 1.07812 15.9844 1.52584 15.9844 2.07812V10.0781C15.9844 10.6304 15.5367 11.0781 14.9844 11.0781H2.98438C2.43209 11.0781 1.98438 10.6304 1.98438 10.0781V2.07812ZM11.95 3.07812C11.5936 3.07812 11.4152 3.50899 11.6671 3.76097L11.954 4.04781L10.0672 5.93453C9.97926 6.02249 9.83998 6.03239 9.74045 5.95775L9.07185 5.4563C8.419 4.96667 7.51442 4.99325 6.89145 5.52037L4.24984 7.75559C3.93362 8.02315 3.8942 8.49638 4.16175 8.81258C4.42931 9.12879 4.90254 9.16823 5.21875 8.90067L7.86036 6.66544C7.94936 6.59014 8.07859 6.58634 8.17184 6.65629L8.84046 7.15774C9.53717 7.68028 10.5121 7.61099 11.1279 6.99518L13.0146 5.10847L13.3015 5.39529C13.5534 5.64726 13.9843 5.4688 13.9843 5.11243V3.47813C13.9843 3.25722 13.8052 3.07812 13.5843 3.07812H11.95Z" fill="white"/>
<path d="M7.98438 12.0781V13.6635C7.40178 13.8694 6.98438 14.425 6.98438 15.0781H10.9844C10.9844 14.425 10.567 13.8694 9.98438 13.6635V12.0781H7.98438Z" fill="white"/>
</g>
<defs>
<clipPath id="clip0_3_29032">
<rect width="16" height="16" fill="white" transform="translate(0.984375 0.078125)"/>
</clipPath>
</defs>
</svg>
