<svg width="17" height="17" viewBox="0 0 17 17" fill="none" xmlns="http://www.w3.org/2000/svg">
<g clip-path="url(#clip0_3_29039)">
<path d="M11.2477 1.84375C12.6546 1.84375 13.8727 2.82164 14.1768 4.19544L15.5381 10.3461C15.6166 10.7009 15.6562 11.0632 15.6562 11.4267V13.3618C15.6562 14.7325 14.545 15.8438 13.1743 15.8438H4.13818C2.76745 15.8438 1.65625 14.7325 1.65625 13.3618V11.4267C1.65625 11.0632 1.69587 10.7009 1.7744 10.3461L3.13574 4.19544C3.43981 2.82164 4.65781 1.84375 6.06485 1.84375H11.2477ZM11.2477 3.34375H6.06485C5.36133 3.34375 4.75233 3.83269 4.6003 4.51959L3.23895 10.6702L3.20425 10.8538L5.66653 10.8546C6.21476 10.8546 6.65918 11.299 6.65918 11.8471C6.65918 12.3954 7.1036 12.8399 7.65182 12.8399H9.71573C10.2639 12.8399 10.7084 12.3954 10.7084 11.8471C10.7084 11.299 11.1528 10.8546 11.701 10.8546L14.109 10.8539C14.0989 10.7924 14.0871 10.7312 14.0736 10.6702L12.7122 4.51959C12.5602 3.83269 11.9511 3.34375 11.2477 3.34375Z" fill="white"/>
</g>
<defs>
<clipPath id="clip0_3_29039">
<rect width="16" height="16" fill="white" transform="translate(0.65625 0.84375)"/>
</clipPath>
</defs>
</svg>
