<svg width="17" height="17" viewBox="0 0 17 17" fill="none" xmlns="http://www.w3.org/2000/svg">
<g clip-path="url(#clip0_3_28966)">
<path fill-rule="evenodd" clip-rule="evenodd" d="M8.32812 15.7031C12.1941 15.7031 15.3281 12.5691 15.3281 8.70312C15.3281 4.83714 12.1941 1.70312 8.32812 1.70312C4.46214 1.70312 1.32812 4.83714 1.32812 8.70312C1.32812 12.5691 4.46214 15.7031 8.32812 15.7031ZM7.35437 5.2281C7.3401 4.94251 7.5678 4.70312 7.85374 4.70312H8.8025C9.08844 4.70312 9.31615 4.94251 9.30188 5.2281L9.10188 9.2281C9.08858 9.49419 8.86893 9.70312 8.6025 9.70312H8.05374C7.78731 9.70312 7.56768 9.49419 7.55438 9.2281L7.35437 5.2281ZM7.32812 11.7031C7.32812 11.1508 7.77585 10.7031 8.32812 10.7031C8.8804 10.7031 9.32812 11.1508 9.32812 11.7031C9.32812 12.2554 8.8804 12.7031 8.32812 12.7031C7.77585 12.7031 7.32812 12.2554 7.32812 11.7031Z" fill="white"/>
</g>
<defs>
<clipPath id="clip0_3_28966">
<rect width="16" height="16" fill="white" transform="translate(0.328125 0.703125)"/>
</clipPath>
</defs>
</svg>
