<svg width="180" height="56" viewBox="0 0 180 56" fill="none" xmlns="http://www.w3.org/2000/svg">
<path d="M60.343 20.7329H63.924L64.26 22.5959C64.96 21.1219 66.469 20.3999 68.062 20.3999C68.844 20.3999 69.629 20.5939 70.161 20.8179L69.32 25.1269C68.6843 24.7529 67.9585 24.56 67.221 24.5689C65.768 24.5689 64.591 25.5449 64.591 27.7119V34.6349H60.343V20.7329ZM71.633 29.4589V20.6449H75.945V28.6519C75.945 30.2649 76.879 31.1269 78.241 31.1269C79.631 31.1269 80.821 30.0709 80.821 27.7349V20.6449H85.132V34.5469H81.532L81.049 32.7139C80.369 33.8239 78.667 34.8809 76.569 34.8809C73.757 34.8809 71.633 33.0989 71.633 29.4589ZM90.902 20.7329L91.379 22.5659C92.051 21.4559 93.702 20.3999 95.779 20.3999C98.523 20.3999 100.595 22.1519 100.595 25.7929V34.6349H96.336V26.6839C96.336 25.0439 95.494 24.1539 94.094 24.1539C92.804 24.1539 91.6 25.2099 91.6 27.5999V34.6349H87.341V20.7329H90.902ZM101.577 20.6449H105.837L108.353 30.1309L110.593 23.8909L109.488 20.6449H113.718L116.458 30.1309L118.89 20.6449H123.175L118.639 34.6349H114.269L112.391 29.0679L110.454 34.6349H106.11L101.577 20.6449ZM123.421 27.6399C123.421 22.8599 126.871 20.3999 130.046 20.3999C131.995 20.3999 133.387 21.1719 134.08 21.9739L134.469 20.7309H138.393V34.5499H134.664L134.08 33.1979C133.496 33.8869 132.245 34.8819 129.848 34.8819C126.427 34.8819 123.421 32.0619 123.421 27.6419V27.6399ZM134.249 27.6399C134.249 25.4029 132.802 24.0219 130.963 24.0219C129.099 24.0219 127.679 25.4319 127.679 27.6399C127.679 29.8479 129.099 31.2619 130.963 31.2619C132.802 31.2589 134.249 29.8779 134.249 27.6399ZM142.85 40.2799L145.209 33.9139L139.619 20.6449H144.198L147.317 29.3119L150.125 20.6449H154.592L147.205 40.2799H142.85ZM44.38 40.2649C41.317 40.5449 38.757 36.9549 36.793 35.1349C35.801 42.2879 24.993 41.6099 25 34.3549C25.004 31.3069 25 23.8599 25 20.9079C25 19.8469 25.291 18.7779 25.838 17.8719C26.875 16.1139 28.878 14.9789 30.918 15.0019C33.993 15.0049 41.395 14.9969 44.38 15.0019C51.642 15.0019 52.332 25.8049 45.155 26.7779L48.561 30.1789C52.303 33.6989 49.494 40.4189 44.38 40.2649ZM42.73 36.0089C44.842 38.1829 48.21 34.8149 46.037 32.7069L40.133 26.8109H36.83V30.1129L41.934 35.2089L42.73 36.0089ZM28.576 34.3579C28.528 37.3799 33.299 37.3909 33.251 34.3579V20.9079C33.291 19.4009 31.698 18.2029 30.258 18.6679C29.767 18.8137 29.337 19.1158 29.0333 19.5282C28.7295 19.9405 28.5686 20.4408 28.575 20.9529L28.576 34.3579ZM44.38 23.2399C47.413 23.2869 47.41 18.5229 44.38 18.5699H36.362C36.971 19.8529 36.816 21.8499 36.827 23.2399H44.38Z" fill="white"/>
</svg>
