<svg width="17" height="17" viewBox="0 0 17 17" fill="none" xmlns="http://www.w3.org/2000/svg">
<g clip-path="url(#clip0_3_28954)">
<path fill-rule="evenodd" clip-rule="evenodd" d="M8.98438 1.0625C12.8504 1.0625 15.9844 4.19651 15.9844 8.0625C15.9844 11.9285 12.8504 15.0625 8.98438 15.0625C5.11839 15.0625 1.98438 11.9285 1.98438 8.0625C1.98438 4.19651 5.11839 1.0625 8.98438 1.0625ZM8.98438 4.0625C8.54223 4.0625 8.23438 5.64829 8.23438 6.0625V8.0625C8.23438 8.47671 8.57017 8.8125 8.98438 8.8125L9.95982 8.81188C11.0128 8.80591 13.9844 8.74219 13.9844 8.0625C13.9844 7.3125 10.1486 7.3125 9.73438 7.3125V6.0625C9.73438 5.64829 9.42652 4.0625 8.98438 4.0625Z" fill="white"/>
</g>
<defs>
<clipPath id="clip0_3_28954">
<rect width="16" height="16" fill="white" transform="translate(0.984375 0.0625)"/>
</clipPath>
</defs>
</svg>
