<svg width="17" height="17" viewBox="0 0 17 17" fill="none" xmlns="http://www.w3.org/2000/svg">
<g clip-path="url(#clip0_3_28972)">
<path fill-rule="evenodd" clip-rule="evenodd" d="M1.98438 2.46875C1.98438 1.91647 2.43209 1.46875 2.98438 1.46875H14.9844C15.5367 1.46875 15.9844 1.91647 15.9844 2.46875V10.4688C15.9844 11.021 15.5367 11.4688 14.9844 11.4688H2.98438C2.43209 11.4688 1.98438 11.021 1.98438 10.4688V2.46875ZM11.95 3.46875C11.5936 3.46875 11.4152 3.89961 11.6671 4.15159L11.954 4.43843L10.0672 6.32515C9.97926 6.41312 9.83998 6.42302 9.74045 6.34837L9.07185 5.84692C8.419 5.35729 7.51442 5.38387 6.89145 5.91099L4.24984 8.14621C3.93362 8.41377 3.8942 8.887 4.16175 9.20321C4.42931 9.51941 4.90254 9.55885 5.21875 9.29129L7.86036 7.05607C7.94936 6.98077 8.07859 6.97697 8.17184 7.04692L8.84046 7.54837C9.53717 8.07091 10.5121 8.00162 11.1279 7.38581L13.0146 5.49909L13.3015 5.78591C13.5534 6.03789 13.9843 5.85943 13.9843 5.50306V3.86875C13.9843 3.64784 13.8052 3.46875 13.5843 3.46875H11.95Z" fill="white"/>
<path d="M7.98438 12.4688V14.0541C7.40178 14.26 6.98438 14.8156 6.98438 15.4688H10.9844C10.9844 14.8156 10.567 14.26 9.98438 14.0541V12.4688H7.98438Z" fill="white"/>
</g>
<defs>
<clipPath id="clip0_3_28972">
<rect width="16" height="16" fill="white" transform="translate(0.984375 0.46875)"/>
</clipPath>
</defs>
</svg>
