<svg width="17" height="17" viewBox="0 0 17 17" fill="none" xmlns="http://www.w3.org/2000/svg">
<g clip-path="url(#clip0_3_28960)">
<path d="M9.23625 1.0625C9.48016 1.06424 9.68723 1.24172 9.72625 1.4825L9.97625 2.9625C10.0078 3.1403 10.1346 3.28632 10.3062 3.3425C10.4854 3.4012 10.6594 3.47479 10.8263 3.5625C10.9829 3.65794 11.1797 3.65794 11.3363 3.5625L12.5562 2.6925C12.7416 2.53808 13.0108 2.53808 13.1962 2.6925L14.0162 3.5125C14.1858 3.68556 14.2069 3.95522 14.0662 4.1525L13.1962 5.3725C13.1009 5.5291 13.1009 5.7259 13.1962 5.8825C13.2839 6.04939 13.3576 6.22333 13.4163 6.4025C13.4725 6.57412 13.6185 6.70092 13.7963 6.7325L15.2762 6.9825C15.517 7.02152 15.6945 7.22859 15.6962 7.4725V8.6425C15.6945 8.88641 15.517 9.09348 15.2762 9.1325L13.7963 9.3825C13.6185 9.41408 13.4725 9.54088 13.4163 9.7125C13.3576 9.89167 13.2839 10.0656 13.1962 10.2325C13.1009 10.3891 13.1009 10.5859 13.1962 10.7425L14.0662 11.9625C14.2069 12.1598 14.1858 12.4294 14.0162 12.6025L13.1962 13.4225C13.0231 13.592 12.7535 13.6131 12.5562 13.4725L11.3363 12.6025C11.1797 12.5071 10.9829 12.5071 10.8263 12.6025C10.6594 12.6902 10.4854 12.7638 10.3062 12.8225C10.1346 12.8787 10.0078 13.0247 9.97625 13.2025L9.72625 14.6825C9.68723 14.9233 9.48016 15.1008 9.23625 15.1025H8.07625C7.83234 15.1008 7.62527 14.9233 7.58625 14.6825L7.33625 13.1625C7.30467 12.9847 7.17787 12.8387 7.00625 12.7825C6.82708 12.7238 6.65314 12.6502 6.48625 12.5625C6.32965 12.4671 6.13285 12.4671 5.97625 12.5625L4.75625 13.4325C4.55897 13.5731 4.28931 13.552 4.11625 13.3825L3.29625 12.5625C3.14183 12.3771 3.14183 12.1079 3.29625 11.9225L4.16625 10.7025C4.26169 10.5459 4.26169 10.3491 4.16625 10.1925C4.07854 10.0256 4.00495 9.85167 3.94625 9.6725C3.89007 9.50088 3.74405 9.37408 3.56625 9.3425L2.07625 9.1325C1.83547 9.09348 1.65799 8.88641 1.65625 8.6425V7.4825C1.65799 7.23859 1.83547 7.03152 2.07625 6.9925L3.55625 6.7425C3.73405 6.71092 3.88007 6.58412 3.93625 6.4125C3.99495 6.23333 4.06854 6.05939 4.15625 5.8925C4.25169 5.7359 4.25169 5.5391 4.15625 5.3825L3.24625 4.1625C3.09183 3.97711 3.09183 3.70789 3.24625 3.5225L4.06625 2.7025C4.25164 2.54808 4.52086 2.54808 4.70625 2.7025L5.92625 3.5725C6.08285 3.66794 6.27965 3.66794 6.43625 3.5725C6.60314 3.48479 6.77708 3.4112 6.95625 3.3525C7.12787 3.29632 7.25467 3.1503 7.28625 2.9725L7.58625 1.4825C7.62527 1.24172 7.83234 1.06424 8.07625 1.0625H9.23625ZM8.65625 6.0625C7.55168 6.0625 6.65625 6.95793 6.65625 8.0625C6.65625 9.16707 7.55168 10.0625 8.65625 10.0625C9.76082 10.0625 10.6562 9.16707 10.6562 8.0625C10.6562 6.95793 9.76082 6.0625 8.65625 6.0625Z" fill="white"/>
</g>
<defs>
<clipPath id="clip0_3_28960">
<rect width="16" height="16" fill="white" transform="translate(0.65625 0.0625)"/>
</clipPath>
</defs>
</svg>
