<svg width="18" height="19" viewBox="0 0 18 19" fill="none" xmlns="http://www.w3.org/2000/svg">
<g clip-path="url(#clip0_3_29874)">
<path fill-rule="evenodd" clip-rule="evenodd" d="M12.9518 3.17656C11.7451 2.45452 10.4289 2.09351 8.99939 2.09351C7.5711 2.09351 6.25365 2.45452 5.04645 3.17656C3.84107 3.89798 2.88523 4.87726 2.18138 6.11378C1.47631 7.35156 1.125 8.7013 1.125 10.1661C1.125 11.9247 1.62593 13.5059 2.62719 14.9109C3.62845 16.3136 4.92167 17.2884 6.50806 17.8261C6.6922 17.8613 6.82909 17.8368 6.91752 17.7525C7.00657 17.6677 7.05078 17.5639 7.05078 17.4381L7.04594 16.8689C7.04231 16.5117 7.03988 16.2003 7.03988 15.9336L6.80487 15.9752C6.65464 16.0035 6.46444 16.0154 6.23548 16.0116C6.00713 16.0085 5.76908 15.9839 5.52315 15.938C5.27905 15.8928 5.05069 15.7884 4.83868 15.6236C4.62669 15.4588 4.47646 15.243 4.38742 14.9771L4.28445 14.7343C4.21661 14.5732 4.10879 14.3946 3.9622 14.1996C3.81501 14.0021 3.66661 13.8688 3.51639 13.799L3.4437 13.7468C3.39647 13.7115 3.35285 13.67 3.31045 13.621C3.26987 13.5719 3.23957 13.5229 3.21959 13.4738C3.19899 13.4234 3.21535 13.3838 3.26987 13.3524C3.32437 13.3197 3.42371 13.3052 3.56667 13.3052L3.77261 13.3367C3.9083 13.3644 4.0779 13.4486 4.2796 13.5882C4.48131 13.7292 4.64727 13.9109 4.7763 14.1354C4.93379 14.4223 5.12337 14.6411 5.34567 14.7921C5.56797 14.9431 5.7921 15.0185 6.01803 15.0185C6.24214 15.0185 6.43779 14.9997 6.60194 14.9657C6.76549 14.9305 6.91995 14.8776 7.06229 14.8084C7.12529 14.3379 7.29246 13.9769 7.56504 13.7247C7.17617 13.682 6.82606 13.6191 6.51533 13.5348C6.20398 13.4511 5.88295 13.3146 5.55222 13.1247C5.21908 12.9361 4.94469 12.7021 4.72602 12.4203C4.50797 12.1423 4.32807 11.7725 4.18875 11.3196C4.04943 10.8624 3.97856 10.3385 3.97856 9.74222C3.97856 8.89501 4.2475 8.17298 4.78781 7.57673C4.53462 6.93896 4.55763 6.22448 4.86049 5.43199C5.05735 5.36909 5.35113 5.41627 5.74121 5.57351C6.13069 5.73075 6.41538 5.86597 6.59649 5.97729C6.7782 6.09051 6.92359 6.18485 7.03261 6.26158C7.66681 6.08296 8.3222 5.99302 8.99939 5.99302C9.6766 5.99302 10.332 6.08422 10.968 6.26599L11.3574 6.01315C11.624 5.84522 11.9389 5.69239 12.3012 5.55087C12.6646 5.41124 12.942 5.37287 13.1335 5.43577C13.4406 6.22825 13.4684 6.94211 13.2153 7.5805C13.7544 8.1755 14.0245 8.89753 14.0245 9.74536C14.0245 10.3404 13.9542 10.868 13.8143 11.3272C13.6749 11.7863 13.4933 12.1561 13.2704 12.4323C13.0487 12.7089 12.7725 12.9417 12.4405 13.1316C12.1092 13.3204 11.7863 13.4568 11.4774 13.5404C11.1661 13.6248 10.8172 13.6877 10.4259 13.7292C10.7814 14.0436 10.9589 14.5406 10.9589 15.2216V17.44C10.9589 17.5658 11.0013 17.6702 11.0873 17.7545C11.1721 17.8382 11.3071 17.8632 11.492 17.828C13.0789 17.2871 14.3715 16.316 15.3728 14.9097C16.374 13.5071 16.875 11.9241 16.875 10.1661C16.875 8.70193 16.5224 7.35156 15.8186 6.11441C15.1142 4.87789 14.1589 3.89861 12.9536 3.17719L12.9518 3.17656Z" fill="#8A8F98"/>
</g>
<defs>
<clipPath id="clip0_3_29874">
<rect width="18" height="18" fill="white" transform="translate(0 0.96875)"/>
</clipPath>
</defs>
</svg>
