<svg width="17" height="17" viewBox="0 0 17 17" fill="none" xmlns="http://www.w3.org/2000/svg">
<g clip-path="url(#clip0_3_29026)">
<path d="M4.32812 2.57812C4.32812 2.44552 4.3808 2.31834 4.47457 2.22457C4.56834 2.1308 4.69552 2.07812 4.82812 2.07812H6.82812V4.57812H4.82812C4.69552 4.57812 4.56834 4.52545 4.47457 4.43168C4.3808 4.33791 4.32812 4.21073 4.32812 4.07812V2.57812ZM6.82812 6.57812H1.82812C1.69552 6.57812 1.56834 6.6308 1.47457 6.72457C1.3808 6.81834 1.32813 6.94552 1.32812 7.07812V8.57812C1.32813 8.71073 1.3808 8.83791 1.47457 8.93168C1.56834 9.02545 1.69552 9.07812 1.82812 9.07812H6.82812V6.57812ZM9.82812 9.07812V6.57812H11.8281C11.9607 6.57812 12.0879 6.6308 12.1817 6.72457C12.2754 6.81834 12.3281 6.94552 12.3281 7.07812V8.57812C12.3281 8.71073 12.2754 8.83791 12.1817 8.93168C12.0879 9.02545 11.9607 9.07812 11.8281 9.07812H9.82812ZM6.82812 11.5781H3.82812C3.69552 11.5781 3.56834 11.6308 3.47457 11.7246C3.3808 11.8183 3.32812 11.9455 3.32812 12.0781V13.5781C3.32812 13.7107 3.3808 13.8379 3.47457 13.9317C3.56834 14.0254 3.69552 14.0781 3.82812 14.0781H6.82812V11.5781ZM9.82812 14.0781H14.8281C14.9607 14.0781 15.0879 14.0254 15.1817 13.9317C15.2754 13.8379 15.3281 13.7107 15.3281 13.5781V12.0781C15.3281 11.9455 15.2754 11.8183 15.1817 11.7246C15.0879 11.6308 14.9607 11.5781 14.8281 11.5781H9.82812V14.0781ZM9.82812 4.57812V2.07812H12.8281C12.9607 2.07812 13.0879 2.1308 13.1817 2.22457C13.2754 2.31834 13.3281 2.44552 13.3281 2.57812V4.07812C13.3281 4.21073 13.2754 4.33791 13.1817 4.43168C13.0879 4.52545 12.9607 4.57812 12.8281 4.57812H9.82812ZM8.32812 1.32812C8.52704 1.32812 8.7178 1.40714 8.85845 1.54779C8.99911 1.68845 9.07812 1.87921 9.07812 2.07812V14.0781C9.07812 14.277 8.99911 14.4678 8.85845 14.6085C8.7178 14.7491 8.52704 14.8281 8.32812 14.8281C8.12921 14.8281 7.93845 14.7491 7.79779 14.6085C7.65714 14.4678 7.57812 14.277 7.57812 14.0781V2.07812C7.57812 1.87921 7.65714 1.68845 7.79779 1.54779C7.93845 1.40714 8.12921 1.32813 8.32812 1.32812Z" fill="white"/>
</g>
<defs>
<clipPath id="clip0_3_29026">
<rect width="16" height="16" fill="white" transform="translate(0.328125 0.078125)"/>
</clipPath>
</defs>
</svg>
