<svg width="18" height="19" viewBox="0 0 18 19" fill="none" xmlns="http://www.w3.org/2000/svg">
<g clip-path="url(#clip0_3_29871)">
<path d="M18 4.81694C17.3794 5.0876 16.7128 5.27049 16.0119 5.35316C16.7269 4.93179 17.2754 4.26316 17.534 3.46723C16.8651 3.85788 16.1242 4.14171 15.3357 4.29388C14.704 3.63256 13.8047 3.21851 12.8088 3.21851C10.8973 3.21851 9.34697 4.74451 9.34697 6.62751C9.34697 6.8938 9.37819 7.15277 9.43615 7.40297C6.55776 7.2603 4.00786 5.90328 2.3 3.84178C2.00271 4.34655 1.83178 4.93179 1.83178 5.55506C1.83178 6.73725 2.44343 7.78117 3.37168 8.39201C2.80388 8.37373 2.27026 8.22083 1.80353 7.96552V8.00942C1.80353 9.66051 2.99637 11.038 4.58086 11.3511C4.28952 11.4287 3.98408 11.4696 3.66896 11.4696C3.446 11.4696 3.22824 11.4492 3.01717 11.4097C3.45789 12.7631 4.73618 13.7491 6.25157 13.7754C5.06617 14.69 3.57309 15.2349 1.95144 15.2349C1.672 15.2349 1.39627 15.2188 1.125 15.1874C2.65747 16.1553 4.47681 16.7186 6.43141 16.7186C12.8006 16.7186 16.2825 11.526 16.2825 7.02256C16.2825 6.87624 16.2787 6.72847 16.2721 6.58217C16.9483 6.1008 17.5355 5.50166 17.9985 4.81913L18 4.81694Z" fill="#8A8F98"/>
</g>
<defs>
<clipPath id="clip0_3_29871">
<rect width="18" height="18" fill="white" transform="translate(0 0.96875)"/>
</clipPath>
</defs>
</svg>
