<svg width="18" height="19" viewBox="0 0 18 19" fill="none" xmlns="http://www.w3.org/2000/svg">
<path d="M0.220574 11.7616C0.180524 11.5909 0.38392 11.4833 0.507922 11.6073L7.08016 18.1796C7.20416 18.3036 7.09663 18.507 6.9259 18.4669C3.60927 17.6889 0.998602 15.0782 0.220574 11.7616ZM0.000340442 9.12753C-0.00283543 9.17853 0.0163374 9.22832 0.0524633 9.26444L9.42305 18.635C9.45918 18.6712 9.50897 18.6904 9.55996 18.6872C9.98642 18.6606 10.4048 18.6044 10.8132 18.5205C10.9508 18.4922 10.9986 18.3232 10.8993 18.2238L0.463671 7.78823C0.364336 7.68889 0.19526 7.73669 0.167 7.8743C0.083135 8.28265 0.0269021 8.70108 0.000340442 9.12753ZM0.757967 6.03447C0.727999 6.10175 0.743263 6.18038 0.795344 6.23247L12.455 17.8921C12.5071 17.9442 12.5857 17.9595 12.653 17.9295C12.9745 17.7863 13.2861 17.6248 13.5864 17.4464C13.6858 17.3874 13.7011 17.2508 13.6194 17.1691L1.51842 5.0681C1.43668 4.98637 1.30013 5.0017 1.24109 5.10108C1.06265 5.40139 0.901168 5.71297 0.757967 6.03447ZM2.27857 3.94082C2.21195 3.8742 2.20783 3.76735 2.27059 3.69708C3.92031 1.85018 6.32005 0.6875 8.99134 0.6875C13.9667 0.6875 18 4.72081 18 9.69615C18 12.3674 16.8373 14.7672 14.9904 16.4169C14.9202 16.4797 14.8133 16.4755 14.7467 16.4089L2.27857 3.94082Z" fill="#F7F8F8"/>
</svg>
